<svg xmlns="http://www.w3.org/2000/svg" width="60.815" height="60.815" viewBox="0 0 60.815 60.815">
  <g id="Group_2597" data-name="Group 2597" transform="translate(0 -0.1)">
    <path id="Path_2663" data-name="Path 2663" d="M59.578.1H1.237A1.238,1.238,0,0,0,0,1.337V59.678a1.238,1.238,0,0,0,1.237,1.237H50.813a1.238,1.238,0,0,0,1.237-1.237,1.222,1.222,0,0,0-1.237-1.237H2.475V2.575H58.341v57.1a1.238,1.238,0,0,0,1.237,1.237,1.255,1.255,0,0,0,1.237-1.237V1.337A1.255,1.255,0,0,0,59.578.1Zm0,0" transform="translate(0 0)" fill="#5e66ca"/>
    <path id="Path_2664" data-name="Path 2664" d="M39.044,50.1a4.744,4.744,0,1,0,4.744,4.744A4.764,4.764,0,0,0,39.044,50.1Zm0,7.012a2.269,2.269,0,1,1,2.269-2.269,2.289,2.289,0,0,1-2.269,2.269Zm0,0" transform="translate(-25.457 -37.11)" fill="#5e66ca"/>
    <path id="Path_2665" data-name="Path 2665" d="M110.811,63.7H81.937A1.238,1.238,0,0,0,80.7,64.937a1.222,1.222,0,0,0,1.237,1.237h28.874a1.237,1.237,0,0,0,0-2.475Zm0,0" transform="translate(-59.895 -47.204)" fill="#5e66ca"/>
    <path id="Path_2666" data-name="Path 2666" d="M39.044,99.7a1.238,1.238,0,0,0-1.237,1.237,1.222,1.222,0,0,0,1.237,1.237,2.269,2.269,0,1,1-2.269,2.269,1.222,1.222,0,0,0-1.237-1.237,1.238,1.238,0,0,0-1.237,1.237A4.744,4.744,0,1,0,39.044,99.7Zm0,0" transform="translate(-25.457 -73.923)" fill="#5e66ca"/>
    <path id="Path_2667" data-name="Path 2667" d="M110.811,113.3H81.937a1.222,1.222,0,0,0-1.237,1.237,1.238,1.238,0,0,0,1.237,1.237h28.874a1.255,1.255,0,0,0,1.237-1.237,1.238,1.238,0,0,0-1.237-1.237Zm0,0" transform="translate(-59.895 -84.017)" fill="#5e66ca"/>
    <path id="Path_2668" data-name="Path 2668" d="M39.044,149.3a4.744,4.744,0,1,0,4.744,4.744,4.764,4.764,0,0,0-4.744-4.744Zm0,7.012a2.269,2.269,0,1,1,2.269-2.269,2.289,2.289,0,0,1-2.269,2.269Zm0,0" transform="translate(-25.457 -110.736)" fill="#5e66ca"/>
    <path id="Path_2669" data-name="Path 2669" d="M110.811,162.9H81.937a1.237,1.237,0,1,0,0,2.475h28.874a1.237,1.237,0,0,0,0-2.475Zm0,0" transform="translate(-59.895 -120.83)" fill="#5e66ca"/>
  </g>
</svg>
