<svg xmlns="http://www.w3.org/2000/svg" xmlns:xlink="http://www.w3.org/1999/xlink" width="66.906" height="60.878" viewBox="0 0 66.906 60.878">
  <defs>
    <clipPath id="clip-path">
      <rect id="Rectangle_1756" data-name="Rectangle 1756" width="40.73" height="60.549" fill="#2eb39c"/>
    </clipPath>
  </defs>
  <g id="Group_2601" data-name="Group 2601" transform="translate(-508 -1239)">
    <path id="Path_2674" data-name="Path 2674" d="M11.941.436a1.243,1.243,0,0,1,1.891,0,1.526,1.526,0,0,1,0,1.891L4.521,11.638H29.544a1.309,1.309,0,1,1,0,2.619H4.521l9.311,9.311a1.53,1.53,0,0,1,0,1.891,1.243,1.243,0,0,1-1.891,0L.3,13.821a1.526,1.526,0,0,1,0-1.891Zm0,0" transform="translate(574.906 1269.025) rotate(90)" fill="#2eb39c"/>
    <g id="Group_2600" data-name="Group 2600" transform="translate(508 1239)">
      <g id="Group_2599" data-name="Group 2599">
        <g id="Group_2598" data-name="Group 2598" clip-path="url(#clip-path)">
          <path id="Path_2675" data-name="Path 2675" d="M40.73,1.759A1.764,1.764,0,0,0,38.971,0H1.759a1.759,1.759,0,0,0,0,3.517H12.416A14.211,14.211,0,0,1,26.5,15.828H1.759a1.759,1.759,0,0,0,0,3.517H26.5A14.235,14.235,0,0,1,12.416,31.831H1.776A1.786,1.786,0,0,0,.018,33.642a1.815,1.815,0,0,0,.545,1.266L27.171,60.074A1.752,1.752,0,0,0,29.65,60h0a1.8,1.8,0,0,0-.07-2.515L6.173,35.348H12.4a17.764,17.764,0,0,0,17.639-16h8.934a1.759,1.759,0,1,0,0-3.517H30.037a17.607,17.607,0,0,0-7.052-12.31H38.971A1.764,1.764,0,0,0,40.73,1.759Z" fill="#2eb39c"/>
        </g>
      </g>
    </g>
  </g>
</svg>
