<svg xmlns="http://www.w3.org/2000/svg" width="76.759" height="60.878" viewBox="0 0 76.759 60.878">
  <g id="Group_2602" data-name="Group 2602" transform="translate(0 -0.2)">
    <path id="Path_2676" data-name="Path 2676" d="M75.436.2H1.323A1.423,1.423,0,0,0,0,1.523V59.755a1.423,1.423,0,0,0,1.323,1.323H75.436a1.423,1.423,0,0,0,1.323-1.323V1.523A1.423,1.423,0,0,0,75.436.2ZM74.112,58.431H2.647V2.847H74.112Zm0,0" transform="translate(0 0)" fill="#782b93"/>
    <path id="Path_2677" data-name="Path 2677" d="M15.744,23.789A7.444,7.444,0,1,0,8.3,16.344a7.413,7.413,0,0,0,7.444,7.444Zm0-12.076a4.8,4.8,0,1,1,0,9.595,4.911,4.911,0,0,1-4.8-4.8,4.8,4.8,0,0,1,4.8-4.8Zm0,0" transform="translate(5.431 5.692)" fill="#782b93"/>
    <path id="Path_2678" data-name="Path 2678" d="M6.177,44.239A1.264,1.264,0,0,0,7,43.908L28.675,24.884,42.24,38.449a1.287,1.287,0,0,0,1.82-1.82l-6.286-6.286L49.85,17.109,64.739,30.839a1.3,1.3,0,0,0,1.82,0,1.18,1.18,0,0,0-.165-1.82L50.677,14.131a2.351,2.351,0,0,0-.993-.331,1.43,1.43,0,0,0-.993.5l-12.9,14.227L29.5,22.237a1.3,1.3,0,0,0-1.82,0L5.184,42.088a1.31,1.31,0,0,0-.165,1.82,4.209,4.209,0,0,0,1.158.331Zm0,0" transform="translate(3.088 8.898)" fill="#782b93"/>
  </g>
</svg>
