<svg xmlns="http://www.w3.org/2000/svg" width="61.882" height="61.336" viewBox="0 0 61.882 61.336">
  <g id="Group_2603" data-name="Group 2603" transform="translate(0 -0.6)">
    <path id="Path_2679" data-name="Path 2679" d="M61.882,31.541A30.951,30.951,0,0,0,9.055,9.655,30.754,30.754,0,0,0,0,31.541V46.192A15.035,15.035,0,0,0,15.015,61.207,1.78,1.78,0,0,0,16.8,59.419V32.965a1.78,1.78,0,0,0-1.788-1.788,14.946,14.946,0,0,0-11.439,5.3V31.541a27.365,27.365,0,0,1,54.73,0,2.974,2.974,0,0,0,.033.364,1.3,1.3,0,0,0-.033.364V37.2a14.946,14.946,0,0,0-11.439-5.3,1.78,1.78,0,0,0-1.788,1.788V60.148a1.78,1.78,0,0,0,1.788,1.788A15.035,15.035,0,0,0,61.882,46.92V32.269a2.973,2.973,0,0,0-.033-.364,2.971,2.971,0,0,0,.033-.364ZM13.211,34.885v22.6a11.439,11.439,0,0,1,0-22.6ZM48.654,58.194V35.6a11.439,11.439,0,0,1,0,22.6Zm0,0" transform="translate(0 0)" fill="#ee7804"/>
  </g>
</svg>
